<svg xmlns="http://www.w3.org/2000/svg" xmlns:xlink="http://www.w3.org/1999/xlink" width="945" zoomAndPan="magnify" viewBox="0 0 708.75 283.499996" height="378" preserveAspectRatio="xMidYMid meet" version="1.0"><defs><filter x="0%" y="0%" width="100%" height="100%" id="7a5991d539"><feColorMatrix values="0 0 0 0 1 0 0 0 0 1 0 0 0 0 1 0 0 0 1 0" color-interpolation-filters="sRGB"/></filter><g/><clipPath id="091fc5ee6f"><path d="M 0.394531 0.289062 L 634.554688 0.289062 L 634.554688 163 L 0.394531 163 Z M 0.394531 0.289062 " clip-rule="nonzero"/></clipPath><clipPath id="55140c82c2"><rect x="0" width="635" y="0" height="163"/></clipPath><clipPath id="411f6df3f5"><path d="M 21 144 L 614 144 L 614 176.859375 L 21 176.859375 Z M 21 144 " clip-rule="nonzero"/></clipPath><mask id="e3b98d1205"><g filter="url(#7a5991d539)"><rect x="-192.925" width="1020.6" fill="#000000" y="-101.369999" height="408.239995" fill-opacity="0.92"/></g></mask><clipPath id="ff0a6e1a72"><path d="M 166 11 L 181 11 L 181 32.859375 L 166 32.859375 Z M 166 11 " clip-rule="nonzero"/></clipPath><clipPath id="466766f233"><rect x="0" width="593" y="0" height="33"/></clipPath><clipPath id="3d1e93464e"><rect x="0" width="635" y="0" height="177"/></clipPath></defs><g transform="matrix(1, 0, 0, 1, 37, 39)"><g clip-path="url(#3d1e93464e)"><g clip-path="url(#091fc5ee6f)"><g transform="matrix(1, 0, 0, 1, -0.000000000000007105, -0.000000000000007105)"><g clip-path="url(#55140c82c2)"><g fill="#ff6f3b" fill-opacity="1"><g transform="translate(0.539204, 129.140552)"><g><path d="M 51.25 -99.015625 C 64.414062 -99.015625 75.847656 -94.253906 85.546875 -84.734375 C 95.242188 -75.222656 100.09375 -63.414062 100.09375 -49.3125 C 100.09375 -35.207031 95.460938 -23.195312 86.203125 -13.28125 C 76.953125 -3.363281 65.566406 1.59375 52.046875 1.59375 C 38.523438 1.59375 27.023438 -3.296875 17.546875 -13.078125 C 8.078125 -22.867188 3.34375 -34.523438 3.34375 -48.046875 C 3.34375 -55.429688 4.675781 -62.347656 7.34375 -68.796875 C 10.007812 -75.242188 13.566406 -80.644531 18.015625 -85 C 22.460938 -89.363281 27.578125 -92.789062 33.359375 -95.28125 C 39.140625 -97.769531 45.101562 -99.015625 51.25 -99.015625 Z M 26.953125 -48.703125 C 26.953125 -40.785156 29.507812 -34.359375 34.625 -29.421875 C 39.738281 -24.484375 45.453125 -22.015625 51.765625 -22.015625 C 58.085938 -22.015625 63.785156 -24.414062 68.859375 -29.21875 C 73.929688 -34.03125 76.46875 -40.484375 76.46875 -48.578125 C 76.46875 -56.671875 73.910156 -63.164062 68.796875 -68.0625 C 63.679688 -72.957031 57.960938 -75.40625 51.640625 -75.40625 C 45.328125 -75.40625 39.632812 -72.9375 34.5625 -68 C 29.488281 -63.0625 26.953125 -56.628906 26.953125 -48.703125 Z M 26.953125 -48.703125 "/></g></g></g><g fill="#ff6f3b" fill-opacity="1"><g transform="translate(103.962769, 129.140552)"><g><path d="M 44.4375 -70.328125 C 53.332031 -70.328125 60.738281 -66.921875 66.65625 -60.109375 C 72.570312 -53.304688 75.53125 -45.015625 75.53125 -35.234375 L 75.53125 -11.75 C 75.53125 -9.695312 75.460938 -8.160156 75.328125 -7.140625 C 75.203125 -6.117188 74.828125 -4.984375 74.203125 -3.734375 C 72.953125 -1.335938 69.484375 -0.140625 63.796875 -0.140625 C 57.472656 -0.140625 53.820312 -1.785156 52.84375 -5.078125 C 52.3125 -6.585938 52.046875 -8.851562 52.046875 -11.875 L 52.046875 -35.359375 C 52.046875 -39.015625 51 -41.863281 48.90625 -43.90625 C 46.820312 -45.945312 44.019531 -46.96875 40.5 -46.96875 C 36.988281 -46.96875 34.140625 -45.898438 31.953125 -43.765625 C 29.773438 -41.628906 28.6875 -38.828125 28.6875 -35.359375 L 28.6875 -11.75 C 28.6875 -9.695312 28.617188 -8.160156 28.484375 -7.140625 C 28.359375 -6.117188 27.9375 -4.984375 27.21875 -3.734375 C 26.0625 -1.335938 22.640625 -0.140625 16.953125 -0.140625 C 11.347656 -0.140625 7.921875 -1.335938 6.671875 -3.734375 C 6.046875 -5.066406 5.664062 -6.242188 5.53125 -7.265625 C 5.40625 -8.296875 5.34375 -9.832031 5.34375 -11.875 L 5.34375 -59.125 C 5.34375 -61.082031 5.40625 -62.570312 5.53125 -63.59375 C 5.664062 -64.613281 6.09375 -65.75 6.8125 -67 C 8.050781 -69.21875 11.472656 -70.328125 17.078125 -70.328125 C 22.503906 -70.328125 25.84375 -69.304688 27.09375 -67.265625 C 27.976562 -65.742188 28.421875 -63.914062 28.421875 -61.78125 C 28.773438 -62.40625 29.578125 -63.296875 30.828125 -64.453125 C 32.078125 -65.609375 33.28125 -66.546875 34.4375 -67.265625 C 37.457031 -69.304688 40.789062 -70.328125 44.4375 -70.328125 Z M 44.4375 -70.328125 "/></g></g></g><g fill="#ff6f3b" fill-opacity="1"><g transform="translate(184.83331, 129.140552)"><g><path d="M 73.125 -43.5625 C 73.125 -38.09375 71.765625 -34.046875 69.046875 -31.421875 C 66.335938 -28.796875 63.335938 -27.484375 60.046875 -27.484375 L 28.421875 -27.484375 C 28.421875 -24.992188 29.890625 -22.90625 32.828125 -21.21875 C 35.765625 -19.53125 38.703125 -18.6875 41.640625 -18.6875 C 46.796875 -18.6875 50.84375 -19.21875 53.78125 -20.28125 L 55.25 -20.8125 C 57.382812 -21.789062 59.164062 -22.28125 60.59375 -22.28125 C 63.4375 -22.28125 65.878906 -20.28125 67.921875 -16.28125 C 69.078125 -13.875 69.65625 -11.828125 69.65625 -10.140625 C 69.65625 -2.222656 60.179688 1.734375 41.234375 1.734375 C 34.648438 1.734375 28.800781 0.597656 23.6875 -1.671875 C 18.570312 -3.941406 14.59375 -6.941406 11.75 -10.671875 C 6.144531 -17.878906 3.34375 -25.929688 3.34375 -34.828125 C 3.34375 -46.035156 6.96875 -55 14.21875 -61.71875 C 21.46875 -68.4375 30.519531 -71.796875 41.375 -71.796875 C 53.738281 -71.796875 62.8125 -67.4375 68.59375 -58.71875 C 71.613281 -54.09375 73.125 -49.039062 73.125 -43.5625 Z M 44.96875 -39.640625 C 48.351562 -39.640625 50.046875 -41.0625 50.046875 -43.90625 C 50.046875 -45.945312 49.265625 -47.59375 47.703125 -48.84375 C 46.148438 -50.09375 43.925781 -50.71875 41.03125 -50.71875 C 38.144531 -50.71875 35.273438 -49.535156 32.421875 -47.171875 C 29.578125 -44.816406 28.15625 -42.304688 28.15625 -39.640625 Z M 44.96875 -39.640625 "/></g></g></g><g fill="#ff6f3b" fill-opacity="1"><g transform="translate(261.300028, 129.140552)"><g/></g></g><g fill="#ff6f3b" fill-opacity="1"><g transform="translate(295.06282, 129.140552)"><g><path d="M 65.78125 -94.21875 C 66.5 -95.550781 67.703125 -96.484375 69.390625 -97.015625 C 71.085938 -97.554688 73.222656 -97.828125 75.796875 -97.828125 C 78.378906 -97.828125 80.425781 -97.601562 81.9375 -97.15625 C 83.445312 -96.707031 84.601562 -96.171875 85.40625 -95.546875 C 86.207031 -94.929688 86.832031 -94.046875 87.28125 -92.890625 C 87.726562 -91.367188 87.953125 -89.050781 87.953125 -85.9375 L 87.953125 -11.875 C 87.953125 -9.832031 87.882812 -8.296875 87.75 -7.265625 C 87.613281 -6.242188 87.191406 -5.066406 86.484375 -3.734375 C 85.234375 -1.335938 81.757812 -0.140625 76.0625 -0.140625 C 69.84375 -0.140625 66.195312 -1.785156 65.125 -5.078125 C 64.59375 -6.585938 64.328125 -8.898438 64.328125 -12.015625 L 64.328125 -39.109375 L 28.953125 -39.109375 L 28.953125 -11.875 C 28.953125 -9.832031 28.882812 -8.296875 28.75 -7.265625 C 28.625 -6.242188 28.203125 -5.066406 27.484375 -3.734375 C 26.242188 -1.335938 22.773438 -0.140625 17.078125 -0.140625 C 10.847656 -0.140625 7.203125 -1.785156 6.140625 -5.078125 C 5.609375 -6.585938 5.34375 -8.898438 5.34375 -12.015625 L 5.34375 -86.078125 C 5.34375 -88.117188 5.40625 -89.648438 5.53125 -90.671875 C 5.664062 -91.703125 6.09375 -92.882812 6.8125 -94.21875 C 8.050781 -96.625 11.519531 -97.828125 17.21875 -97.828125 C 23.445312 -97.828125 27.140625 -96.179688 28.296875 -92.890625 C 28.734375 -91.367188 28.953125 -89.050781 28.953125 -85.9375 L 28.953125 -58.71875 L 64.328125 -58.71875 L 64.328125 -86.078125 C 64.328125 -88.117188 64.390625 -89.648438 64.515625 -90.671875 C 64.648438 -91.703125 65.070312 -92.882812 65.78125 -94.21875 Z M 65.78125 -94.21875 "/></g></g></g><g fill="#ff6f3b" fill-opacity="1"><g transform="translate(388.34421, 129.140552)"><g><path d="M 73.125 -43.5625 C 73.125 -38.09375 71.765625 -34.046875 69.046875 -31.421875 C 66.335938 -28.796875 63.335938 -27.484375 60.046875 -27.484375 L 28.421875 -27.484375 C 28.421875 -24.992188 29.890625 -22.90625 32.828125 -21.21875 C 35.765625 -19.53125 38.703125 -18.6875 41.640625 -18.6875 C 46.796875 -18.6875 50.84375 -19.21875 53.78125 -20.28125 L 55.25 -20.8125 C 57.382812 -21.789062 59.164062 -22.28125 60.59375 -22.28125 C 63.4375 -22.28125 65.878906 -20.28125 67.921875 -16.28125 C 69.078125 -13.875 69.65625 -11.828125 69.65625 -10.140625 C 69.65625 -2.222656 60.179688 1.734375 41.234375 1.734375 C 34.648438 1.734375 28.800781 0.597656 23.6875 -1.671875 C 18.570312 -3.941406 14.59375 -6.941406 11.75 -10.671875 C 6.144531 -17.878906 3.34375 -25.929688 3.34375 -34.828125 C 3.34375 -46.035156 6.96875 -55 14.21875 -61.71875 C 21.46875 -68.4375 30.519531 -71.796875 41.375 -71.796875 C 53.738281 -71.796875 62.8125 -67.4375 68.59375 -58.71875 C 71.613281 -54.09375 73.125 -49.039062 73.125 -43.5625 Z M 44.96875 -39.640625 C 48.351562 -39.640625 50.046875 -41.0625 50.046875 -43.90625 C 50.046875 -45.945312 49.265625 -47.59375 47.703125 -48.84375 C 46.148438 -50.09375 43.925781 -50.71875 41.03125 -50.71875 C 38.144531 -50.71875 35.273438 -49.535156 32.421875 -47.171875 C 29.578125 -44.816406 28.15625 -42.304688 28.15625 -39.640625 Z M 44.96875 -39.640625 "/></g></g></g><g fill="#ff6f3b" fill-opacity="1"><g transform="translate(464.810927, 129.140552)"><g><path d="M 5.34375 -91.6875 C 5.34375 -93.726562 5.40625 -95.257812 5.53125 -96.28125 C 5.664062 -97.3125 6.046875 -98.492188 6.671875 -99.828125 C 7.921875 -102.222656 11.390625 -103.421875 17.078125 -103.421875 C 22.503906 -103.421875 25.882812 -102.222656 27.21875 -99.828125 C 27.9375 -98.492188 28.359375 -97.289062 28.484375 -96.21875 C 28.617188 -95.15625 28.6875 -93.597656 28.6875 -91.546875 L 28.6875 -29.765625 C 28.6875 -26.554688 28.953125 -24.53125 29.484375 -23.6875 C 30.023438 -22.84375 31.207031 -22.421875 33.03125 -22.421875 C 34.851562 -22.421875 36.078125 -22.351562 36.703125 -22.21875 C 37.328125 -22.082031 38.082031 -21.703125 38.96875 -21.078125 C 40.75 -19.921875 41.640625 -16.765625 41.640625 -11.609375 C 41.640625 -6.003906 40.75 -2.578125 38.96875 -1.328125 C 36.65625 0.265625 31.140625 0.53125 22.421875 -0.53125 C 15.566406 -1.425781 11.117188 -3.695312 9.078125 -7.34375 C 6.585938 -11.695312 5.34375 -18.632812 5.34375 -28.15625 Z M 5.34375 -91.6875 "/></g></g></g><g fill="#ff6f3b" fill-opacity="1"><g transform="translate(508.448996, 129.140552)"><g><path d="M 5.34375 -91.6875 C 5.34375 -93.726562 5.40625 -95.257812 5.53125 -96.28125 C 5.664062 -97.3125 6.046875 -98.492188 6.671875 -99.828125 C 7.921875 -102.222656 11.390625 -103.421875 17.078125 -103.421875 C 22.503906 -103.421875 25.882812 -102.222656 27.21875 -99.828125 C 27.9375 -98.492188 28.359375 -97.289062 28.484375 -96.21875 C 28.617188 -95.15625 28.6875 -93.597656 28.6875 -91.546875 L 28.6875 -29.765625 C 28.6875 -26.554688 28.953125 -24.53125 29.484375 -23.6875 C 30.023438 -22.84375 31.207031 -22.421875 33.03125 -22.421875 C 34.851562 -22.421875 36.078125 -22.351562 36.703125 -22.21875 C 37.328125 -22.082031 38.082031 -21.703125 38.96875 -21.078125 C 40.75 -19.921875 41.640625 -16.765625 41.640625 -11.609375 C 41.640625 -6.003906 40.75 -2.578125 38.96875 -1.328125 C 36.65625 0.265625 31.140625 0.53125 22.421875 -0.53125 C 15.566406 -1.425781 11.117188 -3.695312 9.078125 -7.34375 C 6.585938 -11.695312 5.34375 -18.632812 5.34375 -28.15625 Z M 5.34375 -91.6875 "/></g></g></g><g fill="#ff6f3b" fill-opacity="1"><g transform="translate(552.087065, 129.140552)"><g><path d="M 3.34375 -35.09375 C 3.34375 -45.769531 7.078125 -54.578125 14.546875 -61.515625 C 22.015625 -68.460938 30.550781 -71.9375 40.15625 -71.9375 C 49.769531 -71.9375 58.269531 -68.488281 65.65625 -61.59375 C 73.039062 -54.695312 76.734375 -45.910156 76.734375 -35.234375 C 76.734375 -27.847656 74.820312 -21.285156 71 -15.546875 C 67.175781 -9.804688 62.523438 -5.578125 57.046875 -2.859375 C 51.578125 -0.148438 45.90625 1.203125 40.03125 1.203125 C 34.164062 1.203125 28.472656 -0.238281 22.953125 -3.125 C 17.441406 -6.019531 12.796875 -10.289062 9.015625 -15.9375 C 5.234375 -21.59375 3.34375 -27.976562 3.34375 -35.09375 Z M 31.21875 -25.546875 C 34.070312 -23.367188 36.96875 -22.28125 39.90625 -22.28125 C 42.84375 -22.28125 45.773438 -23.390625 48.703125 -25.609375 C 51.640625 -27.835938 53.109375 -31.128906 53.109375 -35.484375 C 53.109375 -39.847656 51.726562 -43.097656 48.96875 -45.234375 C 46.21875 -47.367188 43.238281 -48.4375 40.03125 -48.4375 C 36.832031 -48.4375 33.851562 -47.320312 31.09375 -45.09375 C 28.332031 -42.875 26.953125 -39.609375 26.953125 -35.296875 C 26.953125 -30.984375 28.375 -27.734375 31.21875 -25.546875 Z M 31.21875 -25.546875 "/></g></g></g></g></g></g><g clip-path="url(#411f6df3f5)"><g mask="url(#e3b98d1205)"><g transform="matrix(1, 0, 0, 1, 21, 144)"><g clip-path="url(#466766f233)"><g fill="#ff6f3b" fill-opacity="1"><g transform="translate(0.849327, 26.058436)"><g><path d="M 16.203125 -3.34375 C 16.472656 -2.695312 16.609375 -2.226562 16.609375 -1.9375 C 16.609375 -1.257812 16.050781 -0.6875 14.9375 -0.21875 C 14.351562 0.03125 13.882812 0.15625 13.53125 0.15625 C 13.1875 0.15625 12.898438 0.0703125 12.671875 -0.09375 C 12.453125 -0.257812 12.289062 -0.4375 12.1875 -0.625 C 12 -0.957031 11.296875 -2.582031 10.078125 -5.5 L 9.25 -5.4375 L 5.84375 -5.4375 L 5.84375 -2.40625 C 5.84375 -1.988281 5.828125 -1.675781 5.796875 -1.46875 C 5.773438 -1.257812 5.691406 -1.019531 5.546875 -0.75 C 5.296875 -0.269531 4.597656 -0.03125 3.453125 -0.03125 C 2.191406 -0.03125 1.453125 -0.363281 1.234375 -1.03125 C 1.128906 -1.332031 1.078125 -1.796875 1.078125 -2.421875 L 1.078125 -17.390625 C 1.078125 -17.796875 1.085938 -18.101562 1.109375 -18.3125 C 1.140625 -18.519531 1.226562 -18.757812 1.375 -19.03125 C 1.625 -19.507812 2.328125 -19.75 3.484375 -19.75 L 9.296875 -19.75 C 10.878906 -19.75 12.414062 -19.175781 13.90625 -18.03125 C 14.625 -17.476562 15.21875 -16.722656 15.6875 -15.765625 C 16.15625 -14.816406 16.390625 -13.757812 16.390625 -12.59375 C 16.390625 -10.5625 15.710938 -8.890625 14.359375 -7.578125 C 14.753906 -6.617188 15.367188 -5.207031 16.203125 -3.34375 Z M 5.84375 -10.21875 L 9.296875 -10.21875 C 9.816406 -10.21875 10.335938 -10.414062 10.859375 -10.8125 C 11.378906 -11.207031 11.640625 -11.796875 11.640625 -12.578125 C 11.640625 -13.367188 11.378906 -13.96875 10.859375 -14.375 C 10.335938 -14.78125 9.800781 -14.984375 9.25 -14.984375 L 5.84375 -14.984375 Z M 5.84375 -10.21875 "/></g></g></g><g fill="#ff6f3b" fill-opacity="1"><g transform="translate(17.824219, 26.058436)"><g><path d="M 14.765625 -8.796875 C 14.765625 -7.691406 14.488281 -6.875 13.9375 -6.34375 C 13.394531 -5.8125 12.789062 -5.546875 12.125 -5.546875 L 5.734375 -5.546875 C 5.734375 -5.046875 6.03125 -4.625 6.625 -4.28125 C 7.21875 -3.945312 7.8125 -3.78125 8.40625 -3.78125 C 9.445312 -3.78125 10.265625 -3.882812 10.859375 -4.09375 L 11.15625 -4.203125 C 11.59375 -4.398438 11.953125 -4.5 12.234375 -4.5 C 12.804688 -4.5 13.300781 -4.09375 13.71875 -3.28125 C 13.945312 -2.800781 14.0625 -2.390625 14.0625 -2.046875 C 14.0625 -0.453125 12.148438 0.34375 8.328125 0.34375 C 6.992188 0.34375 5.8125 0.113281 4.78125 -0.34375 C 3.75 -0.800781 2.945312 -1.40625 2.375 -2.15625 C 1.238281 -3.613281 0.671875 -5.238281 0.671875 -7.03125 C 0.671875 -9.300781 1.398438 -11.113281 2.859375 -12.46875 C 4.328125 -13.820312 6.160156 -14.5 8.359375 -14.5 C 10.859375 -14.5 12.691406 -13.617188 13.859375 -11.859375 C 14.460938 -10.921875 14.765625 -9.898438 14.765625 -8.796875 Z M 9.078125 -8 C 9.765625 -8 10.109375 -8.289062 10.109375 -8.875 C 10.109375 -9.28125 9.953125 -9.609375 9.640625 -9.859375 C 9.328125 -10.117188 8.875 -10.25 8.28125 -10.25 C 7.695312 -10.25 7.117188 -10.007812 6.546875 -9.53125 C 5.972656 -9.050781 5.6875 -8.539062 5.6875 -8 Z M 9.078125 -8 "/></g></g></g><g fill="#ff6f3b" fill-opacity="1"><g transform="translate(33.775318, 26.058436)"><g><path d="M 5.53125 -7.09375 C 5.53125 -6.332031 5.78125 -5.738281 6.28125 -5.3125 C 6.78125 -4.894531 7.3125 -4.6875 7.875 -4.6875 C 8.445312 -4.6875 8.976562 -4.851562 9.46875 -5.1875 C 9.96875 -5.519531 10.367188 -5.6875 10.671875 -5.6875 C 11.210938 -5.6875 11.867188 -5.210938 12.640625 -4.265625 C 13.054688 -3.742188 13.265625 -3.273438 13.265625 -2.859375 C 13.265625 -2.171875 12.769531 -1.53125 11.78125 -0.9375 C 10.757812 -0.21875 9.5 0.140625 8 0.140625 C 6.332031 0.140625 4.726562 -0.460938 3.1875 -1.671875 C 2.445312 -2.242188 1.84375 -3.007812 1.375 -3.96875 C 0.90625 -4.9375 0.671875 -6 0.671875 -7.15625 C 0.671875 -8.3125 0.90625 -9.359375 1.375 -10.296875 C 1.84375 -11.242188 2.445312 -12.007812 3.1875 -12.59375 C 4.675781 -13.769531 6.265625 -14.359375 7.953125 -14.359375 C 8.628906 -14.359375 9.289062 -14.265625 9.9375 -14.078125 C 10.59375 -13.890625 11.070312 -13.707031 11.375 -13.53125 L 11.8125 -13.265625 C 12.132812 -13.046875 12.382812 -12.875 12.5625 -12.75 C 13.03125 -12.382812 13.265625 -11.972656 13.265625 -11.515625 C 13.265625 -11.054688 13.070312 -10.539062 12.6875 -9.96875 C 12.039062 -8.976562 11.421875 -8.484375 10.828125 -8.484375 C 10.492188 -8.484375 10.007812 -8.679688 9.375 -9.078125 C 9.050781 -9.390625 8.585938 -9.546875 7.984375 -9.546875 C 7.390625 -9.546875 6.832031 -9.328125 6.3125 -8.890625 C 5.789062 -8.460938 5.53125 -7.863281 5.53125 -7.09375 Z M 5.53125 -7.09375 "/></g></g></g><g fill="#ff6f3b" fill-opacity="1"><g transform="translate(48.217547, 26.058436)"><g><path d="M 0.671875 -7.09375 C 0.671875 -9.25 1.425781 -11.023438 2.9375 -12.421875 C 4.445312 -13.828125 6.171875 -14.53125 8.109375 -14.53125 C 10.054688 -14.53125 11.773438 -13.832031 13.265625 -12.4375 C 14.753906 -11.039062 15.5 -9.265625 15.5 -7.109375 C 15.5 -5.617188 15.113281 -4.296875 14.34375 -3.140625 C 13.570312 -1.984375 12.628906 -1.128906 11.515625 -0.578125 C 10.410156 -0.0234375 9.265625 0.25 8.078125 0.25 C 6.898438 0.25 5.753906 -0.0390625 4.640625 -0.625 C 3.523438 -1.21875 2.582031 -2.082031 1.8125 -3.21875 C 1.050781 -4.363281 0.671875 -5.65625 0.671875 -7.09375 Z M 6.296875 -5.15625 C 6.878906 -4.71875 7.46875 -4.5 8.0625 -4.5 C 8.65625 -4.5 9.25 -4.722656 9.84375 -5.171875 C 10.4375 -5.617188 10.734375 -6.28125 10.734375 -7.15625 C 10.734375 -8.039062 10.453125 -8.695312 9.890625 -9.125 C 9.335938 -9.5625 8.734375 -9.78125 8.078125 -9.78125 C 7.429688 -9.78125 6.828125 -9.554688 6.265625 -9.109375 C 5.710938 -8.660156 5.4375 -8 5.4375 -7.125 C 5.4375 -6.257812 5.722656 -5.601562 6.296875 -5.15625 Z M 6.296875 -5.15625 "/></g></g></g><g fill="#ff6f3b" fill-opacity="1"><g transform="translate(64.896133, 26.058436)"><g><path d="M 8.96875 -14.203125 C 10.769531 -14.203125 12.265625 -13.515625 13.453125 -12.140625 C 14.648438 -10.765625 15.25 -9.085938 15.25 -7.109375 L 15.25 -2.375 C 15.25 -1.957031 15.234375 -1.644531 15.203125 -1.4375 C 15.179688 -1.226562 15.109375 -1 14.984375 -0.75 C 14.734375 -0.269531 14.035156 -0.03125 12.890625 -0.03125 C 11.609375 -0.03125 10.867188 -0.363281 10.671875 -1.03125 C 10.566406 -1.332031 10.515625 -1.789062 10.515625 -2.40625 L 10.515625 -7.140625 C 10.515625 -7.878906 10.300781 -8.453125 9.875 -8.859375 C 9.457031 -9.273438 8.890625 -9.484375 8.171875 -9.484375 C 7.460938 -9.484375 6.890625 -9.265625 6.453125 -8.828125 C 6.015625 -8.398438 5.796875 -7.835938 5.796875 -7.140625 L 5.796875 -2.375 C 5.796875 -1.957031 5.78125 -1.644531 5.75 -1.4375 C 5.726562 -1.226562 5.644531 -1 5.5 -0.75 C 5.257812 -0.269531 4.566406 -0.03125 3.421875 -0.03125 C 2.285156 -0.03125 1.59375 -0.269531 1.34375 -0.75 C 1.21875 -1.019531 1.140625 -1.257812 1.109375 -1.46875 C 1.085938 -1.675781 1.078125 -1.988281 1.078125 -2.40625 L 1.078125 -11.9375 C 1.078125 -12.332031 1.085938 -12.632812 1.109375 -12.84375 C 1.140625 -13.050781 1.226562 -13.28125 1.375 -13.53125 C 1.625 -13.976562 2.316406 -14.203125 3.453125 -14.203125 C 4.546875 -14.203125 5.21875 -13.992188 5.46875 -13.578125 C 5.644531 -13.273438 5.734375 -12.910156 5.734375 -12.484375 C 5.804688 -12.609375 5.96875 -12.785156 6.21875 -13.015625 C 6.476562 -13.253906 6.722656 -13.441406 6.953125 -13.578125 C 7.566406 -13.992188 8.238281 -14.203125 8.96875 -14.203125 Z M 8.96875 -14.203125 "/></g></g></g><g fill="#ff6f3b" fill-opacity="1"><g transform="translate(81.736389, 26.058436)"><g><path d="M 8.96875 -14.203125 C 10.769531 -14.203125 12.265625 -13.515625 13.453125 -12.140625 C 14.648438 -10.765625 15.25 -9.085938 15.25 -7.109375 L 15.25 -2.375 C 15.25 -1.957031 15.234375 -1.644531 15.203125 -1.4375 C 15.179688 -1.226562 15.109375 -1 14.984375 -0.75 C 14.734375 -0.269531 14.035156 -0.03125 12.890625 -0.03125 C 11.609375 -0.03125 10.867188 -0.363281 10.671875 -1.03125 C 10.566406 -1.332031 10.515625 -1.789062 10.515625 -2.40625 L 10.515625 -7.140625 C 10.515625 -7.878906 10.300781 -8.453125 9.875 -8.859375 C 9.457031 -9.273438 8.890625 -9.484375 8.171875 -9.484375 C 7.460938 -9.484375 6.890625 -9.265625 6.453125 -8.828125 C 6.015625 -8.398438 5.796875 -7.835938 5.796875 -7.140625 L 5.796875 -2.375 C 5.796875 -1.957031 5.78125 -1.644531 5.75 -1.4375 C 5.726562 -1.226562 5.644531 -1 5.5 -0.75 C 5.257812 -0.269531 4.566406 -0.03125 3.421875 -0.03125 C 2.285156 -0.03125 1.59375 -0.269531 1.34375 -0.75 C 1.21875 -1.019531 1.140625 -1.257812 1.109375 -1.46875 C 1.085938 -1.675781 1.078125 -1.988281 1.078125 -2.40625 L 1.078125 -11.9375 C 1.078125 -12.332031 1.085938 -12.632812 1.109375 -12.84375 C 1.140625 -13.050781 1.226562 -13.28125 1.375 -13.53125 C 1.625 -13.976562 2.316406 -14.203125 3.453125 -14.203125 C 4.546875 -14.203125 5.21875 -13.992188 5.46875 -13.578125 C 5.644531 -13.273438 5.734375 -12.910156 5.734375 -12.484375 C 5.804688 -12.609375 5.96875 -12.785156 6.21875 -13.015625 C 6.476562 -13.253906 6.722656 -13.441406 6.953125 -13.578125 C 7.566406 -13.992188 8.238281 -14.203125 8.96875 -14.203125 Z M 8.96875 -14.203125 "/></g></g></g><g fill="#ff6f3b" fill-opacity="1"><g transform="translate(98.576644, 26.058436)"><g><path d="M 14.765625 -8.796875 C 14.765625 -7.691406 14.488281 -6.875 13.9375 -6.34375 C 13.394531 -5.8125 12.789062 -5.546875 12.125 -5.546875 L 5.734375 -5.546875 C 5.734375 -5.046875 6.03125 -4.625 6.625 -4.28125 C 7.21875 -3.945312 7.8125 -3.78125 8.40625 -3.78125 C 9.445312 -3.78125 10.265625 -3.882812 10.859375 -4.09375 L 11.15625 -4.203125 C 11.59375 -4.398438 11.953125 -4.5 12.234375 -4.5 C 12.804688 -4.5 13.300781 -4.09375 13.71875 -3.28125 C 13.945312 -2.800781 14.0625 -2.390625 14.0625 -2.046875 C 14.0625 -0.453125 12.148438 0.34375 8.328125 0.34375 C 6.992188 0.34375 5.8125 0.113281 4.78125 -0.34375 C 3.75 -0.800781 2.945312 -1.40625 2.375 -2.15625 C 1.238281 -3.613281 0.671875 -5.238281 0.671875 -7.03125 C 0.671875 -9.300781 1.398438 -11.113281 2.859375 -12.46875 C 4.328125 -13.820312 6.160156 -14.5 8.359375 -14.5 C 10.859375 -14.5 12.691406 -13.617188 13.859375 -11.859375 C 14.460938 -10.921875 14.765625 -9.898438 14.765625 -8.796875 Z M 9.078125 -8 C 9.765625 -8 10.109375 -8.289062 10.109375 -8.875 C 10.109375 -9.28125 9.953125 -9.609375 9.640625 -9.859375 C 9.328125 -10.117188 8.875 -10.25 8.28125 -10.25 C 7.695312 -10.25 7.117188 -10.007812 6.546875 -9.53125 C 5.972656 -9.050781 5.6875 -8.539062 5.6875 -8 Z M 9.078125 -8 "/></g></g></g><g fill="#ff6f3b" fill-opacity="1"><g transform="translate(114.527743, 26.058436)"><g><path d="M 5.53125 -7.09375 C 5.53125 -6.332031 5.78125 -5.738281 6.28125 -5.3125 C 6.78125 -4.894531 7.3125 -4.6875 7.875 -4.6875 C 8.445312 -4.6875 8.976562 -4.851562 9.46875 -5.1875 C 9.96875 -5.519531 10.367188 -5.6875 10.671875 -5.6875 C 11.210938 -5.6875 11.867188 -5.210938 12.640625 -4.265625 C 13.054688 -3.742188 13.265625 -3.273438 13.265625 -2.859375 C 13.265625 -2.171875 12.769531 -1.53125 11.78125 -0.9375 C 10.757812 -0.21875 9.5 0.140625 8 0.140625 C 6.332031 0.140625 4.726562 -0.460938 3.1875 -1.671875 C 2.445312 -2.242188 1.84375 -3.007812 1.375 -3.96875 C 0.90625 -4.9375 0.671875 -6 0.671875 -7.15625 C 0.671875 -8.3125 0.90625 -9.359375 1.375 -10.296875 C 1.84375 -11.242188 2.445312 -12.007812 3.1875 -12.59375 C 4.675781 -13.769531 6.265625 -14.359375 7.953125 -14.359375 C 8.628906 -14.359375 9.289062 -14.265625 9.9375 -14.078125 C 10.59375 -13.890625 11.070312 -13.707031 11.375 -13.53125 L 11.8125 -13.265625 C 12.132812 -13.046875 12.382812 -12.875 12.5625 -12.75 C 13.03125 -12.382812 13.265625 -11.972656 13.265625 -11.515625 C 13.265625 -11.054688 13.070312 -10.539062 12.6875 -9.96875 C 12.039062 -8.976562 11.421875 -8.484375 10.828125 -8.484375 C 10.492188 -8.484375 10.007812 -8.679688 9.375 -9.078125 C 9.050781 -9.390625 8.585938 -9.546875 7.984375 -9.546875 C 7.390625 -9.546875 6.832031 -9.328125 6.3125 -8.890625 C 5.789062 -8.460938 5.53125 -7.863281 5.53125 -7.09375 Z M 5.53125 -7.09375 "/></g></g></g><g fill="#ff6f3b" fill-opacity="1"><g transform="translate(128.700493, 26.058436)"><g><path d="M 9.328125 -9.4375 L 7.578125 -9.546875 L 7.578125 -5.828125 C 7.578125 -5.335938 7.648438 -4.984375 7.796875 -4.765625 C 7.953125 -4.554688 8.238281 -4.453125 8.65625 -4.453125 C 9.082031 -4.453125 9.40625 -4.4375 9.625 -4.40625 C 9.851562 -4.375 10.09375 -4.289062 10.34375 -4.15625 C 10.757812 -3.914062 10.96875 -3.3125 10.96875 -2.34375 C 10.96875 -1.207031 10.71875 -0.515625 10.21875 -0.265625 C 9.945312 -0.140625 9.707031 -0.0625 9.5 -0.03125 C 9.289062 -0.0078125 8.988281 0 8.59375 0 C 6.726562 0 5.3125 -0.421875 4.34375 -1.265625 C 3.375 -2.109375 2.890625 -3.535156 2.890625 -5.546875 L 2.890625 -9.546875 C 2.546875 -9.484375 2.175781 -9.453125 1.78125 -9.453125 C 1.382812 -9.453125 1.054688 -9.601562 0.796875 -9.90625 C 0.535156 -10.21875 0.40625 -10.742188 0.40625 -11.484375 C 0.40625 -12.222656 0.445312 -12.753906 0.53125 -13.078125 C 0.625 -13.410156 0.753906 -13.648438 0.921875 -13.796875 C 1.203125 -14.035156 1.5625 -14.15625 2 -14.15625 L 2.890625 -14.046875 L 2.890625 -16.8125 C 2.890625 -17.226562 2.898438 -17.535156 2.921875 -17.734375 C 2.953125 -17.929688 3.039062 -18.144531 3.1875 -18.375 C 3.414062 -18.832031 4.101562 -19.0625 5.25 -19.0625 C 6.476562 -19.0625 7.207031 -18.726562 7.4375 -18.0625 C 7.53125 -17.769531 7.578125 -17.3125 7.578125 -16.6875 L 7.578125 -14.046875 C 8.367188 -14.117188 8.960938 -14.15625 9.359375 -14.15625 C 9.765625 -14.15625 10.070312 -14.140625 10.28125 -14.109375 C 10.488281 -14.078125 10.726562 -13.992188 11 -13.859375 C 11.46875 -13.617188 11.703125 -12.925781 11.703125 -11.78125 C 11.703125 -10.644531 11.457031 -9.953125 10.96875 -9.703125 C 10.695312 -9.578125 10.457031 -9.5 10.25 -9.46875 C 10.050781 -9.445312 9.742188 -9.4375 9.328125 -9.4375 Z M 9.328125 -9.4375 "/></g></g></g><g fill="#ff6f3b" fill-opacity="1"><g transform="translate(141.310528, 26.058436)"><g><path d="M 1.078125 -11.828125 C 1.078125 -12.242188 1.085938 -12.554688 1.109375 -12.765625 C 1.140625 -12.972656 1.21875 -13.210938 1.34375 -13.484375 C 1.59375 -13.941406 2.296875 -14.171875 3.453125 -14.171875 C 4.316406 -14.171875 4.925781 -14.019531 5.28125 -13.71875 C 5.582031 -13.46875 5.742188 -13.082031 5.765625 -12.5625 C 5.785156 -12.382812 5.796875 -12.125 5.796875 -11.78125 L 5.796875 -2.34375 C 5.796875 -1.925781 5.78125 -1.613281 5.75 -1.40625 C 5.726562 -1.207031 5.644531 -0.972656 5.5 -0.703125 C 5.257812 -0.234375 4.566406 0 3.421875 0 C 2.285156 0 1.59375 -0.242188 1.34375 -0.734375 C 1.21875 -0.992188 1.140625 -1.222656 1.109375 -1.421875 C 1.085938 -1.617188 1.078125 -1.9375 1.078125 -2.375 Z M 5.515625 -16.828125 C 5.378906 -16.566406 5.140625 -16.382812 4.796875 -16.28125 C 4.453125 -16.175781 4 -16.125 3.4375 -16.125 C 2.875 -16.125 2.421875 -16.175781 2.078125 -16.28125 C 1.734375 -16.382812 1.492188 -16.570312 1.359375 -16.84375 C 1.222656 -17.113281 1.140625 -17.351562 1.109375 -17.5625 C 1.085938 -17.769531 1.078125 -18.078125 1.078125 -18.484375 C 1.078125 -18.898438 1.085938 -19.210938 1.109375 -19.421875 C 1.140625 -19.628906 1.21875 -19.859375 1.34375 -20.109375 C 1.59375 -20.585938 2.296875 -20.828125 3.453125 -20.828125 C 4.578125 -20.828125 5.257812 -20.585938 5.5 -20.109375 C 5.644531 -19.835938 5.726562 -19.597656 5.75 -19.390625 C 5.78125 -19.179688 5.796875 -18.867188 5.796875 -18.453125 C 5.796875 -18.046875 5.78125 -17.738281 5.75 -17.53125 C 5.726562 -17.320312 5.648438 -17.085938 5.515625 -16.828125 Z M 5.515625 -16.828125 "/></g></g></g><g fill="#ff6f3b" fill-opacity="1"><g transform="translate(148.69342, 26.058436)"><g><path d="M 8.96875 -14.203125 C 10.769531 -14.203125 12.265625 -13.515625 13.453125 -12.140625 C 14.648438 -10.765625 15.25 -9.085938 15.25 -7.109375 L 15.25 -2.375 C 15.25 -1.957031 15.234375 -1.644531 15.203125 -1.4375 C 15.179688 -1.226562 15.109375 -1 14.984375 -0.75 C 14.734375 -0.269531 14.035156 -0.03125 12.890625 -0.03125 C 11.609375 -0.03125 10.867188 -0.363281 10.671875 -1.03125 C 10.566406 -1.332031 10.515625 -1.789062 10.515625 -2.40625 L 10.515625 -7.140625 C 10.515625 -7.878906 10.300781 -8.453125 9.875 -8.859375 C 9.457031 -9.273438 8.890625 -9.484375 8.171875 -9.484375 C 7.460938 -9.484375 6.890625 -9.265625 6.453125 -8.828125 C 6.015625 -8.398438 5.796875 -7.835938 5.796875 -7.140625 L 5.796875 -2.375 C 5.796875 -1.957031 5.78125 -1.644531 5.75 -1.4375 C 5.726562 -1.226562 5.644531 -1 5.5 -0.75 C 5.257812 -0.269531 4.566406 -0.03125 3.421875 -0.03125 C 2.285156 -0.03125 1.59375 -0.269531 1.34375 -0.75 C 1.21875 -1.019531 1.140625 -1.257812 1.109375 -1.46875 C 1.085938 -1.675781 1.078125 -1.988281 1.078125 -2.40625 L 1.078125 -11.9375 C 1.078125 -12.332031 1.085938 -12.632812 1.109375 -12.84375 C 1.140625 -13.050781 1.226562 -13.28125 1.375 -13.53125 C 1.625 -13.976562 2.316406 -14.203125 3.453125 -14.203125 C 4.546875 -14.203125 5.21875 -13.992188 5.46875 -13.578125 C 5.644531 -13.273438 5.734375 -12.910156 5.734375 -12.484375 C 5.804688 -12.609375 5.96875 -12.785156 6.21875 -13.015625 C 6.476562 -13.253906 6.722656 -13.441406 6.953125 -13.578125 C 7.566406 -13.992188 8.238281 -14.203125 8.96875 -14.203125 Z M 8.96875 -14.203125 "/></g></g></g><g clip-path="url(#ff0a6e1a72)"><g fill="#ff6f3b" fill-opacity="1"><g transform="translate(165.533675, 26.058436)"><g><path d="M 10.078125 -1.78125 C 9.398438 -0.882812 8.3125 -0.4375 6.8125 -0.4375 C 5.320312 -0.4375 3.925781 -1.125 2.625 -2.5 C 1.320312 -3.875 0.671875 -5.472656 0.671875 -7.296875 C 0.671875 -9.128906 1.328125 -10.738281 2.640625 -12.125 C 3.953125 -13.507812 5.390625 -14.203125 6.953125 -14.203125 C 7.566406 -14.203125 8.125 -14.085938 8.625 -13.859375 C 9.125 -13.640625 9.46875 -13.4375 9.65625 -13.25 C 9.851562 -13.0625 10.003906 -12.882812 10.109375 -12.71875 C 10.160156 -13.226562 10.34375 -13.613281 10.65625 -13.875 C 10.96875 -14.132812 11.472656 -14.265625 12.171875 -14.265625 C 12.878906 -14.265625 13.394531 -14.207031 13.71875 -14.09375 C 14.039062 -13.988281 14.269531 -13.804688 14.40625 -13.546875 C 14.539062 -13.285156 14.617188 -13.054688 14.640625 -12.859375 C 14.671875 -12.660156 14.6875 -12.351562 14.6875 -11.9375 L 14.6875 -0.78125 C 14.6875 1.28125 13.96875 2.945312 12.53125 4.21875 C 11.09375 5.488281 9.476562 6.125 7.6875 6.125 C 6.320312 6.125 5.015625 5.789062 3.765625 5.125 C 2.523438 4.457031 1.90625 3.851562 1.90625 3.3125 C 1.90625 2.613281 2.175781 1.992188 2.71875 1.453125 C 3.0625 1.078125 3.328125 0.816406 3.515625 0.671875 C 3.703125 0.523438 3.921875 0.453125 4.171875 0.453125 C 4.429688 0.453125 4.691406 0.5625 4.953125 0.78125 C 5.816406 1.445312 6.753906 1.78125 7.765625 1.78125 C 8.441406 1.78125 8.992188 1.507812 9.421875 0.96875 C 9.859375 0.425781 10.078125 -0.21875 10.078125 -0.96875 Z M 5.28125 -7.296875 C 5.28125 -6.710938 5.507812 -6.1875 5.96875 -5.71875 C 6.425781 -5.25 6.984375 -5.015625 7.640625 -5.015625 C 8.296875 -5.015625 8.835938 -5.25 9.265625 -5.71875 C 9.703125 -6.195312 9.921875 -6.71875 9.921875 -7.28125 C 9.921875 -7.851562 9.710938 -8.382812 9.296875 -8.875 C 8.878906 -9.375 8.320312 -9.625 7.625 -9.625 C 6.925781 -9.625 6.359375 -9.378906 5.921875 -8.890625 C 5.492188 -8.410156 5.28125 -7.878906 5.28125 -7.296875 Z M 5.28125 -7.296875 "/></g></g></g></g><g fill="#ff6f3b" fill-opacity="1"><g transform="translate(181.8081, 26.058436)"><g/></g></g><g fill="#ff6f3b" fill-opacity="1"><g transform="translate(189.137099, 26.058436)"><g><path d="M 9.328125 -9.4375 L 7.578125 -9.546875 L 7.578125 -5.828125 C 7.578125 -5.335938 7.648438 -4.984375 7.796875 -4.765625 C 7.953125 -4.554688 8.238281 -4.453125 8.65625 -4.453125 C 9.082031 -4.453125 9.40625 -4.4375 9.625 -4.40625 C 9.851562 -4.375 10.09375 -4.289062 10.34375 -4.15625 C 10.757812 -3.914062 10.96875 -3.3125 10.96875 -2.34375 C 10.96875 -1.207031 10.71875 -0.515625 10.21875 -0.265625 C 9.945312 -0.140625 9.707031 -0.0625 9.5 -0.03125 C 9.289062 -0.0078125 8.988281 0 8.59375 0 C 6.726562 0 5.3125 -0.421875 4.34375 -1.265625 C 3.375 -2.109375 2.890625 -3.535156 2.890625 -5.546875 L 2.890625 -9.546875 C 2.546875 -9.484375 2.175781 -9.453125 1.78125 -9.453125 C 1.382812 -9.453125 1.054688 -9.601562 0.796875 -9.90625 C 0.535156 -10.21875 0.40625 -10.742188 0.40625 -11.484375 C 0.40625 -12.222656 0.445312 -12.753906 0.53125 -13.078125 C 0.625 -13.410156 0.753906 -13.648438 0.921875 -13.796875 C 1.203125 -14.035156 1.5625 -14.15625 2 -14.15625 L 2.890625 -14.046875 L 2.890625 -16.8125 C 2.890625 -17.226562 2.898438 -17.535156 2.921875 -17.734375 C 2.953125 -17.929688 3.039062 -18.144531 3.1875 -18.375 C 3.414062 -18.832031 4.101562 -19.0625 5.25 -19.0625 C 6.476562 -19.0625 7.207031 -18.726562 7.4375 -18.0625 C 7.53125 -17.769531 7.578125 -17.3125 7.578125 -16.6875 L 7.578125 -14.046875 C 8.367188 -14.117188 8.960938 -14.15625 9.359375 -14.15625 C 9.765625 -14.15625 10.070312 -14.140625 10.28125 -14.109375 C 10.488281 -14.078125 10.726562 -13.992188 11 -13.859375 C 11.46875 -13.617188 11.703125 -12.925781 11.703125 -11.78125 C 11.703125 -10.644531 11.457031 -9.953125 10.96875 -9.703125 C 10.695312 -9.578125 10.457031 -9.5 10.25 -9.46875 C 10.050781 -9.445312 9.742188 -9.4375 9.328125 -9.4375 Z M 9.328125 -9.4375 "/></g></g></g><g fill="#ff6f3b" fill-opacity="1"><g transform="translate(201.747122, 26.058436)"><g><path d="M 8.953125 -14.15625 C 10.742188 -14.15625 12.238281 -13.46875 13.4375 -12.09375 C 14.632812 -10.726562 15.234375 -9.0625 15.234375 -7.09375 L 15.234375 -2.34375 C 15.234375 -1.925781 15.21875 -1.613281 15.1875 -1.40625 C 15.15625 -1.207031 15.070312 -0.972656 14.9375 -0.703125 C 14.695312 -0.234375 14.003906 0 12.859375 0 C 11.765625 0 11.082031 -0.234375 10.8125 -0.703125 C 10.664062 -0.972656 10.578125 -1.210938 10.546875 -1.421875 C 10.523438 -1.640625 10.515625 -1.96875 10.515625 -2.40625 L 10.515625 -7.109375 C 10.515625 -7.847656 10.304688 -8.421875 9.890625 -8.828125 C 9.472656 -9.242188 8.945312 -9.453125 8.3125 -9.453125 C 7.675781 -9.453125 7.113281 -9.257812 6.625 -8.875 C 6.144531 -8.488281 5.867188 -8.054688 5.796875 -7.578125 L 5.796875 -2.34375 C 5.796875 -1.925781 5.78125 -1.613281 5.75 -1.40625 C 5.726562 -1.207031 5.644531 -0.972656 5.5 -0.703125 C 5.257812 -0.234375 4.566406 0 3.421875 0 C 2.285156 0 1.59375 -0.242188 1.34375 -0.734375 C 1.21875 -0.992188 1.140625 -1.222656 1.109375 -1.421875 C 1.085938 -1.617188 1.078125 -1.9375 1.078125 -2.375 L 1.078125 -18.484375 C 1.078125 -18.898438 1.085938 -19.210938 1.109375 -19.421875 C 1.140625 -19.628906 1.21875 -19.859375 1.34375 -20.109375 C 1.59375 -20.585938 2.296875 -20.828125 3.453125 -20.828125 C 4.578125 -20.828125 5.257812 -20.585938 5.5 -20.109375 C 5.644531 -19.835938 5.726562 -19.597656 5.75 -19.390625 C 5.78125 -19.179688 5.796875 -18.875 5.796875 -18.46875 L 5.796875 -12.5 C 6.691406 -13.601562 7.742188 -14.15625 8.953125 -14.15625 Z M 8.953125 -14.15625 "/></g></g></g><g fill="#ff6f3b" fill-opacity="1"><g transform="translate(218.560448, 26.058436)"><g><path d="M 14.765625 -8.796875 C 14.765625 -7.691406 14.488281 -6.875 13.9375 -6.34375 C 13.394531 -5.8125 12.789062 -5.546875 12.125 -5.546875 L 5.734375 -5.546875 C 5.734375 -5.046875 6.03125 -4.625 6.625 -4.28125 C 7.21875 -3.945312 7.8125 -3.78125 8.40625 -3.78125 C 9.445312 -3.78125 10.265625 -3.882812 10.859375 -4.09375 L 11.15625 -4.203125 C 11.59375 -4.398438 11.953125 -4.5 12.234375 -4.5 C 12.804688 -4.5 13.300781 -4.09375 13.71875 -3.28125 C 13.945312 -2.800781 14.0625 -2.390625 14.0625 -2.046875 C 14.0625 -0.453125 12.148438 0.34375 8.328125 0.34375 C 6.992188 0.34375 5.8125 0.113281 4.78125 -0.34375 C 3.75 -0.800781 2.945312 -1.40625 2.375 -2.15625 C 1.238281 -3.613281 0.671875 -5.238281 0.671875 -7.03125 C 0.671875 -9.300781 1.398438 -11.113281 2.859375 -12.46875 C 4.328125 -13.820312 6.160156 -14.5 8.359375 -14.5 C 10.859375 -14.5 12.691406 -13.617188 13.859375 -11.859375 C 14.460938 -10.921875 14.765625 -9.898438 14.765625 -8.796875 Z M 9.078125 -8 C 9.765625 -8 10.109375 -8.289062 10.109375 -8.875 C 10.109375 -9.28125 9.953125 -9.609375 9.640625 -9.859375 C 9.328125 -10.117188 8.875 -10.25 8.28125 -10.25 C 7.695312 -10.25 7.117188 -10.007812 6.546875 -9.53125 C 5.972656 -9.050781 5.6875 -8.539062 5.6875 -8 Z M 9.078125 -8 "/></g></g></g><g fill="#ff6f3b" fill-opacity="1"><g transform="translate(234.511547, 26.058436)"><g/></g></g><g fill="#ff6f3b" fill-opacity="1"><g transform="translate(241.840534, 26.058436)"><g><path d="M 19.25 -14.09375 C 20.394531 -13.59375 20.96875 -12.972656 20.96875 -12.234375 C 20.96875 -11.929688 20.820312 -11.441406 20.53125 -10.765625 C 20.25 -10.085938 20.007812 -9.5 19.8125 -9 L 16.84375 -1.78125 C 16.570312 -0.988281 16.125 -0.429688 15.5 -0.109375 C 15.226562 0.015625 14.882812 0.078125 14.46875 0.078125 C 14.0625 0.078125 13.660156 -0.078125 13.265625 -0.390625 C 12.878906 -0.703125 12.625 -1.019531 12.5 -1.34375 L 12.296875 -1.8125 C 12.148438 -2.164062 11.617188 -3.566406 10.703125 -6.015625 C 10.523438 -5.578125 10.257812 -4.867188 9.90625 -3.890625 C 9.550781 -2.910156 9.320312 -2.300781 9.21875 -2.0625 C 9.125 -1.820312 9.0625 -1.660156 9.03125 -1.578125 C 9.007812 -1.492188 8.9375 -1.34375 8.8125 -1.125 C 8.6875 -0.914062 8.539062 -0.726562 8.375 -0.5625 C 7.945312 -0.132812 7.453125 0.078125 6.890625 0.078125 C 6.335938 0.078125 5.875 -0.078125 5.5 -0.390625 C 5.125 -0.703125 4.875 -1.019531 4.75 -1.34375 L 0.671875 -11.265625 C 0.492188 -11.804688 0.40625 -12.15625 0.40625 -12.3125 C 0.40625 -13.03125 0.914062 -13.597656 1.9375 -14.015625 C 2.507812 -14.242188 2.972656 -14.359375 3.328125 -14.359375 C 3.691406 -14.359375 3.988281 -14.28125 4.21875 -14.125 C 4.445312 -13.976562 4.601562 -13.828125 4.6875 -13.671875 C 4.78125 -13.523438 4.851562 -13.367188 4.90625 -13.203125 C 5.207031 -12.484375 5.84375 -10.796875 6.8125 -8.140625 L 8.40625 -12.5 C 8.519531 -12.863281 8.71875 -13.179688 9 -13.453125 C 9.519531 -13.972656 10.050781 -14.234375 10.59375 -14.234375 C 11.132812 -14.234375 11.597656 -14.085938 11.984375 -13.796875 C 12.367188 -13.515625 12.632812 -13.226562 12.78125 -12.9375 L 12.984375 -12.484375 C 13.890625 -9.960938 14.421875 -8.523438 14.578125 -8.171875 L 16.21875 -12.640625 C 16.65625 -13.785156 17.304688 -14.359375 18.171875 -14.359375 C 18.503906 -14.359375 18.863281 -14.269531 19.25 -14.09375 Z M 19.25 -14.09375 "/></g></g></g><g fill="#ff6f3b" fill-opacity="1"><g transform="translate(263.180387, 26.058436)"><g><path d="M 0.671875 -7.09375 C 0.671875 -9.25 1.425781 -11.023438 2.9375 -12.421875 C 4.445312 -13.828125 6.171875 -14.53125 8.109375 -14.53125 C 10.054688 -14.53125 11.773438 -13.832031 13.265625 -12.4375 C 14.753906 -11.039062 15.5 -9.265625 15.5 -7.109375 C 15.5 -5.617188 15.113281 -4.296875 14.34375 -3.140625 C 13.570312 -1.984375 12.628906 -1.128906 11.515625 -0.578125 C 10.410156 -0.0234375 9.265625 0.25 8.078125 0.25 C 6.898438 0.25 5.753906 -0.0390625 4.640625 -0.625 C 3.523438 -1.21875 2.582031 -2.082031 1.8125 -3.21875 C 1.050781 -4.363281 0.671875 -5.65625 0.671875 -7.09375 Z M 6.296875 -5.15625 C 6.878906 -4.71875 7.46875 -4.5 8.0625 -4.5 C 8.65625 -4.5 9.25 -4.722656 9.84375 -5.171875 C 10.4375 -5.617188 10.734375 -6.28125 10.734375 -7.15625 C 10.734375 -8.039062 10.453125 -8.695312 9.890625 -9.125 C 9.335938 -9.5625 8.734375 -9.78125 8.078125 -9.78125 C 7.429688 -9.78125 6.828125 -9.554688 6.265625 -9.109375 C 5.710938 -8.660156 5.4375 -8 5.4375 -7.125 C 5.4375 -6.257812 5.722656 -5.601562 6.296875 -5.15625 Z M 6.296875 -5.15625 "/></g></g></g><g fill="#ff6f3b" fill-opacity="1"><g transform="translate(279.858961, 26.058436)"><g><path d="M 10.71875 -14.03125 C 11.0625 -13.925781 11.34375 -13.742188 11.5625 -13.484375 C 11.789062 -13.222656 11.90625 -12.804688 11.90625 -12.234375 C 11.90625 -11.660156 11.734375 -11.03125 11.390625 -10.34375 C 11.054688 -9.664062 10.566406 -9.328125 9.921875 -9.328125 C 9.597656 -9.328125 9.285156 -9.394531 8.984375 -9.53125 C 8.691406 -9.675781 8.300781 -9.75 7.8125 -9.75 C 7.332031 -9.75 6.878906 -9.578125 6.453125 -9.234375 C 6.035156 -8.898438 5.828125 -8.488281 5.828125 -8 L 5.828125 -2.34375 C 5.828125 -1.925781 5.8125 -1.613281 5.78125 -1.40625 C 5.75 -1.207031 5.664062 -0.972656 5.53125 -0.703125 C 5.257812 -0.234375 4.554688 0 3.421875 0 C 2.554688 0 1.9375 -0.148438 1.5625 -0.453125 C 1.269531 -0.703125 1.109375 -1.09375 1.078125 -1.625 C 1.078125 -1.800781 1.078125 -2.0625 1.078125 -2.40625 L 1.078125 -11.859375 C 1.078125 -12.273438 1.085938 -12.582031 1.109375 -12.78125 C 1.140625 -12.988281 1.21875 -13.222656 1.34375 -13.484375 C 1.59375 -13.960938 2.296875 -14.203125 3.453125 -14.203125 C 4.523438 -14.203125 5.195312 -13.992188 5.46875 -13.578125 C 5.664062 -13.296875 5.765625 -13 5.765625 -12.6875 C 5.859375 -12.820312 5.988281 -12.976562 6.15625 -13.15625 C 6.332031 -13.332031 6.695312 -13.570312 7.25 -13.875 C 7.8125 -14.1875 8.300781 -14.34375 8.71875 -14.34375 C 9.144531 -14.34375 9.5 -14.316406 9.78125 -14.265625 C 10.070312 -14.222656 10.382812 -14.144531 10.71875 -14.03125 Z M 10.71875 -14.03125 "/></g></g></g><g fill="#ff6f3b" fill-opacity="1"><g transform="translate(292.684535, 26.058436)"><g><path d="M 1.078125 -18.515625 C 1.078125 -18.929688 1.085938 -19.238281 1.109375 -19.4375 C 1.140625 -19.644531 1.21875 -19.882812 1.34375 -20.15625 C 1.59375 -20.644531 2.296875 -20.890625 3.453125 -20.890625 C 4.546875 -20.890625 5.226562 -20.644531 5.5 -20.15625 C 5.644531 -19.882812 5.726562 -19.640625 5.75 -19.421875 C 5.78125 -19.210938 5.796875 -18.898438 5.796875 -18.484375 L 5.796875 -6.015625 C 5.796875 -5.367188 5.847656 -4.957031 5.953125 -4.78125 C 6.066406 -4.613281 6.304688 -4.53125 6.671875 -4.53125 C 7.035156 -4.53125 7.28125 -4.515625 7.40625 -4.484375 C 7.53125 -4.460938 7.6875 -4.390625 7.875 -4.265625 C 8.226562 -4.023438 8.40625 -3.382812 8.40625 -2.34375 C 8.40625 -1.207031 8.226562 -0.515625 7.875 -0.265625 C 7.40625 0.0546875 6.289062 0.109375 4.53125 -0.109375 C 3.144531 -0.285156 2.242188 -0.742188 1.828125 -1.484375 C 1.328125 -2.359375 1.078125 -3.757812 1.078125 -5.6875 Z M 1.078125 -18.515625 "/></g></g></g><g fill="#ff6f3b" fill-opacity="1"><g transform="translate(302.00741, 26.058436)"><g><path d="M 10.609375 -20.125 C 10.742188 -20.382812 10.976562 -20.566406 11.3125 -20.671875 C 11.65625 -20.773438 12.109375 -20.828125 12.671875 -20.828125 C 13.242188 -20.828125 13.703125 -20.773438 14.046875 -20.671875 C 14.390625 -20.566406 14.625 -20.378906 14.75 -20.109375 C 14.882812 -19.835938 14.96875 -19.597656 15 -19.390625 C 15.03125 -19.179688 15.046875 -18.875 15.046875 -18.46875 L 15.046875 -2.375 C 15.046875 -1.957031 15.03125 -1.644531 15 -1.4375 C 14.96875 -1.226562 14.882812 -1 14.75 -0.75 C 14.476562 -0.269531 13.71875 -0.03125 12.46875 -0.03125 C 11.21875 -0.03125 10.519531 -0.46875 10.375 -1.34375 C 9.625 -0.476562 8.570312 -0.046875 7.21875 -0.046875 C 5.601562 -0.046875 4.128906 -0.75 2.796875 -2.15625 C 1.472656 -3.570312 0.8125 -5.21875 0.8125 -7.09375 C 0.8125 -8.976562 1.476562 -10.628906 2.8125 -12.046875 C 4.15625 -13.460938 5.625 -14.171875 7.21875 -14.171875 C 8.550781 -14.171875 9.585938 -13.722656 10.328125 -12.828125 L 10.328125 -18.484375 C 10.328125 -18.898438 10.335938 -19.210938 10.359375 -19.421875 C 10.390625 -19.628906 10.472656 -19.863281 10.609375 -20.125 Z M 6.21875 -5.46875 C 6.6875 -4.988281 7.253906 -4.75 7.921875 -4.75 C 8.585938 -4.75 9.140625 -4.988281 9.578125 -5.46875 C 10.023438 -5.957031 10.25 -6.492188 10.25 -7.078125 C 10.25 -7.660156 10.035156 -8.203125 9.609375 -8.703125 C 9.179688 -9.203125 8.609375 -9.453125 7.890625 -9.453125 C 7.171875 -9.453125 6.597656 -9.207031 6.171875 -8.71875 C 5.742188 -8.226562 5.53125 -7.6875 5.53125 -7.09375 C 5.53125 -6.5 5.757812 -5.957031 6.21875 -5.46875 Z M 6.21875 -5.46875 "/></g></g></g><g fill="#ff6f3b" fill-opacity="1"><g transform="translate(318.632103, 26.058436)"><g><path d="M 1 -4.21875 C 1.15625 -4.507812 1.410156 -4.710938 1.765625 -4.828125 C 2.128906 -4.953125 2.707031 -5.015625 3.5 -5.015625 C 4.289062 -5.015625 4.859375 -4.835938 5.203125 -4.484375 C 5.554688 -4.140625 5.734375 -3.460938 5.734375 -2.453125 C 5.734375 -2.078125 5.707031 -1.726562 5.65625 -1.40625 C 5.5 0.125 5 1.453125 4.15625 2.578125 C 3.3125 3.710938 2.320312 4.28125 1.1875 4.28125 C 1.0625 4.28125 0.945312 4.1875 0.84375 4 C 0.75 3.8125 0.703125 3.566406 0.703125 3.265625 C 0.703125 2.972656 0.738281 2.738281 0.8125 2.5625 C 0.894531 2.382812 1 2.269531 1.125 2.21875 C 1.257812 2.175781 1.390625 2.101562 1.515625 2 C 1.648438 1.90625 1.832031 1.671875 2.0625 1.296875 C 2.300781 0.921875 2.441406 0.488281 2.484375 0 C 1.910156 -0.0703125 1.460938 -0.265625 1.140625 -0.578125 C 0.828125 -0.890625 0.675781 -1.398438 0.6875 -2.109375 C 0.695312 -2.828125 0.710938 -3.285156 0.734375 -3.484375 C 0.765625 -3.691406 0.851562 -3.9375 1 -4.21875 Z M 1 -4.21875 "/></g></g></g><g fill="#ff6f3b" fill-opacity="1"><g transform="translate(325.556952, 26.058436)"><g/></g></g><g fill="#ff6f3b" fill-opacity="1"><g transform="translate(332.88594, 26.058436)"><g><path d="M 10.34375 -20 C 13.007812 -20 15.320312 -19.035156 17.28125 -17.109375 C 19.238281 -15.191406 20.21875 -12.804688 20.21875 -9.953125 C 20.21875 -7.109375 19.28125 -4.679688 17.40625 -2.671875 C 15.539062 -0.671875 13.242188 0.328125 10.515625 0.328125 C 7.785156 0.328125 5.460938 -0.660156 3.546875 -2.640625 C 1.628906 -4.617188 0.671875 -6.972656 0.671875 -9.703125 C 0.671875 -11.191406 0.941406 -12.585938 1.484375 -13.890625 C 2.023438 -15.191406 2.742188 -16.28125 3.640625 -17.15625 C 4.535156 -18.039062 5.566406 -18.734375 6.734375 -19.234375 C 7.898438 -19.742188 9.101562 -20 10.34375 -20 Z M 5.4375 -9.828125 C 5.4375 -8.234375 5.953125 -6.9375 6.984375 -5.9375 C 8.023438 -4.945312 9.179688 -4.453125 10.453125 -4.453125 C 11.734375 -4.453125 12.882812 -4.9375 13.90625 -5.90625 C 14.925781 -6.875 15.4375 -8.175781 15.4375 -9.8125 C 15.4375 -11.445312 14.921875 -12.757812 13.890625 -13.75 C 12.859375 -14.738281 11.703125 -15.234375 10.421875 -15.234375 C 9.148438 -15.234375 8 -14.734375 6.96875 -13.734375 C 5.945312 -12.734375 5.4375 -11.429688 5.4375 -9.828125 Z M 5.4375 -9.828125 "/></g></g></g><g fill="#ff6f3b" fill-opacity="1"><g transform="translate(354.279765, 26.058436)"><g><path d="M 8.96875 -14.203125 C 10.769531 -14.203125 12.265625 -13.515625 13.453125 -12.140625 C 14.648438 -10.765625 15.25 -9.085938 15.25 -7.109375 L 15.25 -2.375 C 15.25 -1.957031 15.234375 -1.644531 15.203125 -1.4375 C 15.179688 -1.226562 15.109375 -1 14.984375 -0.75 C 14.734375 -0.269531 14.035156 -0.03125 12.890625 -0.03125 C 11.609375 -0.03125 10.867188 -0.363281 10.671875 -1.03125 C 10.566406 -1.332031 10.515625 -1.789062 10.515625 -2.40625 L 10.515625 -7.140625 C 10.515625 -7.878906 10.300781 -8.453125 9.875 -8.859375 C 9.457031 -9.273438 8.890625 -9.484375 8.171875 -9.484375 C 7.460938 -9.484375 6.890625 -9.265625 6.453125 -8.828125 C 6.015625 -8.398438 5.796875 -7.835938 5.796875 -7.140625 L 5.796875 -2.375 C 5.796875 -1.957031 5.78125 -1.644531 5.75 -1.4375 C 5.726562 -1.226562 5.644531 -1 5.5 -0.75 C 5.257812 -0.269531 4.566406 -0.03125 3.421875 -0.03125 C 2.285156 -0.03125 1.59375 -0.269531 1.34375 -0.75 C 1.21875 -1.019531 1.140625 -1.257812 1.109375 -1.46875 C 1.085938 -1.675781 1.078125 -1.988281 1.078125 -2.40625 L 1.078125 -11.9375 C 1.078125 -12.332031 1.085938 -12.632812 1.109375 -12.84375 C 1.140625 -13.050781 1.226562 -13.28125 1.375 -13.53125 C 1.625 -13.976562 2.316406 -14.203125 3.453125 -14.203125 C 4.546875 -14.203125 5.21875 -13.992188 5.46875 -13.578125 C 5.644531 -13.273438 5.734375 -12.910156 5.734375 -12.484375 C 5.804688 -12.609375 5.96875 -12.785156 6.21875 -13.015625 C 6.476562 -13.253906 6.722656 -13.441406 6.953125 -13.578125 C 7.566406 -13.992188 8.238281 -14.203125 8.96875 -14.203125 Z M 8.96875 -14.203125 "/></g></g></g><g fill="#ff6f3b" fill-opacity="1"><g transform="translate(371.120009, 26.058436)"><g><path d="M 14.765625 -8.796875 C 14.765625 -7.691406 14.488281 -6.875 13.9375 -6.34375 C 13.394531 -5.8125 12.789062 -5.546875 12.125 -5.546875 L 5.734375 -5.546875 C 5.734375 -5.046875 6.03125 -4.625 6.625 -4.28125 C 7.21875 -3.945312 7.8125 -3.78125 8.40625 -3.78125 C 9.445312 -3.78125 10.265625 -3.882812 10.859375 -4.09375 L 11.15625 -4.203125 C 11.59375 -4.398438 11.953125 -4.5 12.234375 -4.5 C 12.804688 -4.5 13.300781 -4.09375 13.71875 -3.28125 C 13.945312 -2.800781 14.0625 -2.390625 14.0625 -2.046875 C 14.0625 -0.453125 12.148438 0.34375 8.328125 0.34375 C 6.992188 0.34375 5.8125 0.113281 4.78125 -0.34375 C 3.75 -0.800781 2.945312 -1.40625 2.375 -2.15625 C 1.238281 -3.613281 0.671875 -5.238281 0.671875 -7.03125 C 0.671875 -9.300781 1.398438 -11.113281 2.859375 -12.46875 C 4.328125 -13.820312 6.160156 -14.5 8.359375 -14.5 C 10.859375 -14.5 12.691406 -13.617188 13.859375 -11.859375 C 14.460938 -10.921875 14.765625 -9.898438 14.765625 -8.796875 Z M 9.078125 -8 C 9.765625 -8 10.109375 -8.289062 10.109375 -8.875 C 10.109375 -9.28125 9.953125 -9.609375 9.640625 -9.859375 C 9.328125 -10.117188 8.875 -10.25 8.28125 -10.25 C 7.695312 -10.25 7.117188 -10.007812 6.546875 -9.53125 C 5.972656 -9.050781 5.6875 -8.539062 5.6875 -8 Z M 9.078125 -8 "/></g></g></g><g fill="#ff6f3b" fill-opacity="1"><g transform="translate(387.071131, 26.058436)"><g/></g></g><g fill="#ff6f3b" fill-opacity="1"><g transform="translate(394.400095, 26.058436)"><g><path d="M 13.28125 -19.03125 C 13.425781 -19.300781 13.671875 -19.488281 14.015625 -19.59375 C 14.359375 -19.695312 14.789062 -19.75 15.3125 -19.75 C 15.832031 -19.75 16.242188 -19.703125 16.546875 -19.609375 C 16.847656 -19.523438 17.082031 -19.421875 17.25 -19.296875 C 17.414062 -19.171875 17.539062 -18.992188 17.625 -18.765625 C 17.71875 -18.453125 17.765625 -17.984375 17.765625 -17.359375 L 17.765625 -2.40625 C 17.765625 -1.988281 17.75 -1.675781 17.71875 -1.46875 C 17.695312 -1.257812 17.613281 -1.019531 17.46875 -0.75 C 17.21875 -0.269531 16.515625 -0.03125 15.359375 -0.03125 C 14.109375 -0.03125 13.375 -0.363281 13.15625 -1.03125 C 13.039062 -1.332031 12.984375 -1.796875 12.984375 -2.421875 L 12.984375 -7.890625 L 5.84375 -7.890625 L 5.84375 -2.40625 C 5.84375 -1.988281 5.828125 -1.675781 5.796875 -1.46875 C 5.773438 -1.257812 5.691406 -1.019531 5.546875 -0.75 C 5.296875 -0.269531 4.597656 -0.03125 3.453125 -0.03125 C 2.191406 -0.03125 1.453125 -0.363281 1.234375 -1.03125 C 1.128906 -1.332031 1.078125 -1.796875 1.078125 -2.421875 L 1.078125 -17.390625 C 1.078125 -17.796875 1.085938 -18.101562 1.109375 -18.3125 C 1.140625 -18.519531 1.226562 -18.757812 1.375 -19.03125 C 1.625 -19.507812 2.328125 -19.75 3.484375 -19.75 C 4.734375 -19.75 5.476562 -19.421875 5.71875 -18.765625 C 5.800781 -18.453125 5.84375 -17.984375 5.84375 -17.359375 L 5.84375 -11.859375 L 12.984375 -11.859375 L 12.984375 -17.390625 C 12.984375 -17.796875 13 -18.101562 13.03125 -18.3125 C 13.0625 -18.519531 13.144531 -18.757812 13.28125 -19.03125 Z M 13.28125 -19.03125 "/></g></g></g><g fill="#ff6f3b" fill-opacity="1"><g transform="translate(413.746175, 26.058436)"><g><path d="M 14.765625 -8.796875 C 14.765625 -7.691406 14.488281 -6.875 13.9375 -6.34375 C 13.394531 -5.8125 12.789062 -5.546875 12.125 -5.546875 L 5.734375 -5.546875 C 5.734375 -5.046875 6.03125 -4.625 6.625 -4.28125 C 7.21875 -3.945312 7.8125 -3.78125 8.40625 -3.78125 C 9.445312 -3.78125 10.265625 -3.882812 10.859375 -4.09375 L 11.15625 -4.203125 C 11.59375 -4.398438 11.953125 -4.5 12.234375 -4.5 C 12.804688 -4.5 13.300781 -4.09375 13.71875 -3.28125 C 13.945312 -2.800781 14.0625 -2.390625 14.0625 -2.046875 C 14.0625 -0.453125 12.148438 0.34375 8.328125 0.34375 C 6.992188 0.34375 5.8125 0.113281 4.78125 -0.34375 C 3.75 -0.800781 2.945312 -1.40625 2.375 -2.15625 C 1.238281 -3.613281 0.671875 -5.238281 0.671875 -7.03125 C 0.671875 -9.300781 1.398438 -11.113281 2.859375 -12.46875 C 4.328125 -13.820312 6.160156 -14.5 8.359375 -14.5 C 10.859375 -14.5 12.691406 -13.617188 13.859375 -11.859375 C 14.460938 -10.921875 14.765625 -9.898438 14.765625 -8.796875 Z M 9.078125 -8 C 9.765625 -8 10.109375 -8.289062 10.109375 -8.875 C 10.109375 -9.28125 9.953125 -9.609375 9.640625 -9.859375 C 9.328125 -10.117188 8.875 -10.25 8.28125 -10.25 C 7.695312 -10.25 7.117188 -10.007812 6.546875 -9.53125 C 5.972656 -9.050781 5.6875 -8.539062 5.6875 -8 Z M 9.078125 -8 "/></g></g></g><g fill="#ff6f3b" fill-opacity="1"><g transform="translate(429.697274, 26.058436)"><g><path d="M 1.078125 -18.515625 C 1.078125 -18.929688 1.085938 -19.238281 1.109375 -19.4375 C 1.140625 -19.644531 1.21875 -19.882812 1.34375 -20.15625 C 1.59375 -20.644531 2.296875 -20.890625 3.453125 -20.890625 C 4.546875 -20.890625 5.226562 -20.644531 5.5 -20.15625 C 5.644531 -19.882812 5.726562 -19.640625 5.75 -19.421875 C 5.78125 -19.210938 5.796875 -18.898438 5.796875 -18.484375 L 5.796875 -6.015625 C 5.796875 -5.367188 5.847656 -4.957031 5.953125 -4.78125 C 6.066406 -4.613281 6.304688 -4.53125 6.671875 -4.53125 C 7.035156 -4.53125 7.28125 -4.515625 7.40625 -4.484375 C 7.53125 -4.460938 7.6875 -4.390625 7.875 -4.265625 C 8.226562 -4.023438 8.40625 -3.382812 8.40625 -2.34375 C 8.40625 -1.207031 8.226562 -0.515625 7.875 -0.265625 C 7.40625 0.0546875 6.289062 0.109375 4.53125 -0.109375 C 3.144531 -0.285156 2.242188 -0.742188 1.828125 -1.484375 C 1.328125 -2.359375 1.078125 -3.757812 1.078125 -5.6875 Z M 1.078125 -18.515625 "/></g></g></g><g fill="#ff6f3b" fill-opacity="1"><g transform="translate(439.020103, 26.058436)"><g><path d="M 1.078125 -18.515625 C 1.078125 -18.929688 1.085938 -19.238281 1.109375 -19.4375 C 1.140625 -19.644531 1.21875 -19.882812 1.34375 -20.15625 C 1.59375 -20.644531 2.296875 -20.890625 3.453125 -20.890625 C 4.546875 -20.890625 5.226562 -20.644531 5.5 -20.15625 C 5.644531 -19.882812 5.726562 -19.640625 5.75 -19.421875 C 5.78125 -19.210938 5.796875 -18.898438 5.796875 -18.484375 L 5.796875 -6.015625 C 5.796875 -5.367188 5.847656 -4.957031 5.953125 -4.78125 C 6.066406 -4.613281 6.304688 -4.53125 6.671875 -4.53125 C 7.035156 -4.53125 7.28125 -4.515625 7.40625 -4.484375 C 7.53125 -4.460938 7.6875 -4.390625 7.875 -4.265625 C 8.226562 -4.023438 8.40625 -3.382812 8.40625 -2.34375 C 8.40625 -1.207031 8.226562 -0.515625 7.875 -0.265625 C 7.40625 0.0546875 6.289062 0.109375 4.53125 -0.109375 C 3.144531 -0.285156 2.242188 -0.742188 1.828125 -1.484375 C 1.328125 -2.359375 1.078125 -3.757812 1.078125 -5.6875 Z M 1.078125 -18.515625 "/></g></g></g><g fill="#ff6f3b" fill-opacity="1"><g transform="translate(448.342978, 26.058436)"><g><path d="M 0.671875 -7.09375 C 0.671875 -9.25 1.425781 -11.023438 2.9375 -12.421875 C 4.445312 -13.828125 6.171875 -14.53125 8.109375 -14.53125 C 10.054688 -14.53125 11.773438 -13.832031 13.265625 -12.4375 C 14.753906 -11.039062 15.5 -9.265625 15.5 -7.109375 C 15.5 -5.617188 15.113281 -4.296875 14.34375 -3.140625 C 13.570312 -1.984375 12.628906 -1.128906 11.515625 -0.578125 C 10.410156 -0.0234375 9.265625 0.25 8.078125 0.25 C 6.898438 0.25 5.753906 -0.0390625 4.640625 -0.625 C 3.523438 -1.21875 2.582031 -2.082031 1.8125 -3.21875 C 1.050781 -4.363281 0.671875 -5.65625 0.671875 -7.09375 Z M 6.296875 -5.15625 C 6.878906 -4.71875 7.46875 -4.5 8.0625 -4.5 C 8.65625 -4.5 9.25 -4.722656 9.84375 -5.171875 C 10.4375 -5.617188 10.734375 -6.28125 10.734375 -7.15625 C 10.734375 -8.039062 10.453125 -8.695312 9.890625 -9.125 C 9.335938 -9.5625 8.734375 -9.78125 8.078125 -9.78125 C 7.429688 -9.78125 6.828125 -9.554688 6.265625 -9.109375 C 5.710938 -8.660156 5.4375 -8 5.4375 -7.125 C 5.4375 -6.257812 5.722656 -5.601562 6.296875 -5.15625 Z M 6.296875 -5.15625 "/></g></g></g><g fill="#ff6f3b" fill-opacity="1"><g transform="translate(465.021598, 26.058436)"><g/></g></g><g fill="#ff6f3b" fill-opacity="1"><g transform="translate(472.350563, 26.058436)"><g><path d="M 10.296875 -12.6875 C 10.398438 -13.695312 11.109375 -14.203125 12.421875 -14.203125 C 13.128906 -14.203125 13.648438 -14.144531 13.984375 -14.03125 C 14.328125 -13.925781 14.566406 -13.738281 14.703125 -13.46875 C 14.835938 -13.207031 14.914062 -12.972656 14.9375 -12.765625 C 14.96875 -12.554688 14.984375 -12.242188 14.984375 -11.828125 L 14.984375 -2.40625 C 14.984375 -1.988281 14.96875 -1.675781 14.9375 -1.46875 C 14.914062 -1.257812 14.84375 -1.019531 14.71875 -0.75 C 14.46875 -0.28125 13.851562 -0.046875 12.875 -0.046875 C 11.894531 -0.046875 11.238281 -0.164062 10.90625 -0.40625 C 10.570312 -0.65625 10.378906 -1.015625 10.328125 -1.484375 C 9.660156 -0.523438 8.546875 -0.046875 6.984375 -0.046875 C 5.429688 -0.046875 3.988281 -0.753906 2.65625 -2.171875 C 1.332031 -3.597656 0.671875 -5.25 0.671875 -7.125 C 0.671875 -9.007812 1.335938 -10.65625 2.671875 -12.0625 C 4.015625 -13.46875 5.488281 -14.171875 7.09375 -14.171875 C 7.695312 -14.171875 8.25 -14.0625 8.75 -13.84375 C 9.257812 -13.632812 9.613281 -13.4375 9.8125 -13.25 C 10.007812 -13.0625 10.171875 -12.875 10.296875 -12.6875 Z M 5.390625 -7.09375 C 5.390625 -6.5 5.625 -5.960938 6.09375 -5.484375 C 6.5625 -5.003906 7.125 -4.765625 7.78125 -4.765625 C 8.445312 -4.765625 9 -5.003906 9.4375 -5.484375 C 9.882812 -5.972656 10.109375 -6.507812 10.109375 -7.09375 C 10.109375 -7.6875 9.894531 -8.234375 9.46875 -8.734375 C 9.050781 -9.234375 8.488281 -9.484375 7.78125 -9.484375 C 7.070312 -9.484375 6.492188 -9.234375 6.046875 -8.734375 C 5.609375 -8.234375 5.390625 -7.6875 5.390625 -7.09375 Z M 5.390625 -7.09375 "/></g></g></g><g fill="#ff6f3b" fill-opacity="1"><g transform="translate(488.921373, 26.058436)"><g><path d="M 9.328125 -9.4375 L 7.578125 -9.546875 L 7.578125 -5.828125 C 7.578125 -5.335938 7.648438 -4.984375 7.796875 -4.765625 C 7.953125 -4.554688 8.238281 -4.453125 8.65625 -4.453125 C 9.082031 -4.453125 9.40625 -4.4375 9.625 -4.40625 C 9.851562 -4.375 10.09375 -4.289062 10.34375 -4.15625 C 10.757812 -3.914062 10.96875 -3.3125 10.96875 -2.34375 C 10.96875 -1.207031 10.71875 -0.515625 10.21875 -0.265625 C 9.945312 -0.140625 9.707031 -0.0625 9.5 -0.03125 C 9.289062 -0.0078125 8.988281 0 8.59375 0 C 6.726562 0 5.3125 -0.421875 4.34375 -1.265625 C 3.375 -2.109375 2.890625 -3.535156 2.890625 -5.546875 L 2.890625 -9.546875 C 2.546875 -9.484375 2.175781 -9.453125 1.78125 -9.453125 C 1.382812 -9.453125 1.054688 -9.601562 0.796875 -9.90625 C 0.535156 -10.21875 0.40625 -10.742188 0.40625 -11.484375 C 0.40625 -12.222656 0.445312 -12.753906 0.53125 -13.078125 C 0.625 -13.410156 0.753906 -13.648438 0.921875 -13.796875 C 1.203125 -14.035156 1.5625 -14.15625 2 -14.15625 L 2.890625 -14.046875 L 2.890625 -16.8125 C 2.890625 -17.226562 2.898438 -17.535156 2.921875 -17.734375 C 2.953125 -17.929688 3.039062 -18.144531 3.1875 -18.375 C 3.414062 -18.832031 4.101562 -19.0625 5.25 -19.0625 C 6.476562 -19.0625 7.207031 -18.726562 7.4375 -18.0625 C 7.53125 -17.769531 7.578125 -17.3125 7.578125 -16.6875 L 7.578125 -14.046875 C 8.367188 -14.117188 8.960938 -14.15625 9.359375 -14.15625 C 9.765625 -14.15625 10.070312 -14.140625 10.28125 -14.109375 C 10.488281 -14.078125 10.726562 -13.992188 11 -13.859375 C 11.46875 -13.617188 11.703125 -12.925781 11.703125 -11.78125 C 11.703125 -10.644531 11.457031 -9.953125 10.96875 -9.703125 C 10.695312 -9.578125 10.457031 -9.5 10.25 -9.46875 C 10.050781 -9.445312 9.742188 -9.4375 9.328125 -9.4375 Z M 9.328125 -9.4375 "/></g></g></g><g fill="#ff6f3b" fill-opacity="1"><g transform="translate(501.531419, 26.058436)"><g/></g></g><g fill="#ff6f3b" fill-opacity="1"><g transform="translate(508.860429, 26.058436)"><g><path d="M 10.296875 -12.6875 C 10.398438 -13.695312 11.109375 -14.203125 12.421875 -14.203125 C 13.128906 -14.203125 13.648438 -14.144531 13.984375 -14.03125 C 14.328125 -13.925781 14.566406 -13.738281 14.703125 -13.46875 C 14.835938 -13.207031 14.914062 -12.972656 14.9375 -12.765625 C 14.96875 -12.554688 14.984375 -12.242188 14.984375 -11.828125 L 14.984375 -2.40625 C 14.984375 -1.988281 14.96875 -1.675781 14.9375 -1.46875 C 14.914062 -1.257812 14.84375 -1.019531 14.71875 -0.75 C 14.46875 -0.28125 13.851562 -0.046875 12.875 -0.046875 C 11.894531 -0.046875 11.238281 -0.164062 10.90625 -0.40625 C 10.570312 -0.65625 10.378906 -1.015625 10.328125 -1.484375 C 9.660156 -0.523438 8.546875 -0.046875 6.984375 -0.046875 C 5.429688 -0.046875 3.988281 -0.753906 2.65625 -2.171875 C 1.332031 -3.597656 0.671875 -5.25 0.671875 -7.125 C 0.671875 -9.007812 1.335938 -10.65625 2.671875 -12.0625 C 4.015625 -13.46875 5.488281 -14.171875 7.09375 -14.171875 C 7.695312 -14.171875 8.25 -14.0625 8.75 -13.84375 C 9.257812 -13.632812 9.613281 -13.4375 9.8125 -13.25 C 10.007812 -13.0625 10.171875 -12.875 10.296875 -12.6875 Z M 5.390625 -7.09375 C 5.390625 -6.5 5.625 -5.960938 6.09375 -5.484375 C 6.5625 -5.003906 7.125 -4.765625 7.78125 -4.765625 C 8.445312 -4.765625 9 -5.003906 9.4375 -5.484375 C 9.882812 -5.972656 10.109375 -6.507812 10.109375 -7.09375 C 10.109375 -7.6875 9.894531 -8.234375 9.46875 -8.734375 C 9.050781 -9.234375 8.488281 -9.484375 7.78125 -9.484375 C 7.070312 -9.484375 6.492188 -9.234375 6.046875 -8.734375 C 5.609375 -8.234375 5.390625 -7.6875 5.390625 -7.09375 Z M 5.390625 -7.09375 "/></g></g></g><g fill="#ff6f3b" fill-opacity="1"><g transform="translate(525.43124, 26.058436)"><g/></g></g><g fill="#ff6f3b" fill-opacity="1"><g transform="translate(532.76025, 26.058436)"><g><path d="M 9.328125 -9.4375 L 7.578125 -9.546875 L 7.578125 -5.828125 C 7.578125 -5.335938 7.648438 -4.984375 7.796875 -4.765625 C 7.953125 -4.554688 8.238281 -4.453125 8.65625 -4.453125 C 9.082031 -4.453125 9.40625 -4.4375 9.625 -4.40625 C 9.851562 -4.375 10.09375 -4.289062 10.34375 -4.15625 C 10.757812 -3.914062 10.96875 -3.3125 10.96875 -2.34375 C 10.96875 -1.207031 10.71875 -0.515625 10.21875 -0.265625 C 9.945312 -0.140625 9.707031 -0.0625 9.5 -0.03125 C 9.289062 -0.0078125 8.988281 0 8.59375 0 C 6.726562 0 5.3125 -0.421875 4.34375 -1.265625 C 3.375 -2.109375 2.890625 -3.535156 2.890625 -5.546875 L 2.890625 -9.546875 C 2.546875 -9.484375 2.175781 -9.453125 1.78125 -9.453125 C 1.382812 -9.453125 1.054688 -9.601562 0.796875 -9.90625 C 0.535156 -10.21875 0.40625 -10.742188 0.40625 -11.484375 C 0.40625 -12.222656 0.445312 -12.753906 0.53125 -13.078125 C 0.625 -13.410156 0.753906 -13.648438 0.921875 -13.796875 C 1.203125 -14.035156 1.5625 -14.15625 2 -14.15625 L 2.890625 -14.046875 L 2.890625 -16.8125 C 2.890625 -17.226562 2.898438 -17.535156 2.921875 -17.734375 C 2.953125 -17.929688 3.039062 -18.144531 3.1875 -18.375 C 3.414062 -18.832031 4.101562 -19.0625 5.25 -19.0625 C 6.476562 -19.0625 7.207031 -18.726562 7.4375 -18.0625 C 7.53125 -17.769531 7.578125 -17.3125 7.578125 -16.6875 L 7.578125 -14.046875 C 8.367188 -14.117188 8.960938 -14.15625 9.359375 -14.15625 C 9.765625 -14.15625 10.070312 -14.140625 10.28125 -14.109375 C 10.488281 -14.078125 10.726562 -13.992188 11 -13.859375 C 11.46875 -13.617188 11.703125 -12.925781 11.703125 -11.78125 C 11.703125 -10.644531 11.457031 -9.953125 10.96875 -9.703125 C 10.695312 -9.578125 10.457031 -9.5 10.25 -9.46875 C 10.050781 -9.445312 9.742188 -9.4375 9.328125 -9.4375 Z M 9.328125 -9.4375 "/></g></g></g><g fill="#ff6f3b" fill-opacity="1"><g transform="translate(545.37025, 26.058436)"><g><path d="M 1.078125 -11.828125 C 1.078125 -12.242188 1.085938 -12.554688 1.109375 -12.765625 C 1.140625 -12.972656 1.21875 -13.210938 1.34375 -13.484375 C 1.59375 -13.941406 2.296875 -14.171875 3.453125 -14.171875 C 4.316406 -14.171875 4.925781 -14.019531 5.28125 -13.71875 C 5.582031 -13.46875 5.742188 -13.082031 5.765625 -12.5625 C 5.785156 -12.382812 5.796875 -12.125 5.796875 -11.78125 L 5.796875 -2.34375 C 5.796875 -1.925781 5.78125 -1.613281 5.75 -1.40625 C 5.726562 -1.207031 5.644531 -0.972656 5.5 -0.703125 C 5.257812 -0.234375 4.566406 0 3.421875 0 C 2.285156 0 1.59375 -0.242188 1.34375 -0.734375 C 1.21875 -0.992188 1.140625 -1.222656 1.109375 -1.421875 C 1.085938 -1.617188 1.078125 -1.9375 1.078125 -2.375 Z M 5.515625 -16.828125 C 5.378906 -16.566406 5.140625 -16.382812 4.796875 -16.28125 C 4.453125 -16.175781 4 -16.125 3.4375 -16.125 C 2.875 -16.125 2.421875 -16.175781 2.078125 -16.28125 C 1.734375 -16.382812 1.492188 -16.570312 1.359375 -16.84375 C 1.222656 -17.113281 1.140625 -17.351562 1.109375 -17.5625 C 1.085938 -17.769531 1.078125 -18.078125 1.078125 -18.484375 C 1.078125 -18.898438 1.085938 -19.210938 1.109375 -19.421875 C 1.140625 -19.628906 1.21875 -19.859375 1.34375 -20.109375 C 1.59375 -20.585938 2.296875 -20.828125 3.453125 -20.828125 C 4.578125 -20.828125 5.257812 -20.585938 5.5 -20.109375 C 5.644531 -19.835938 5.726562 -19.597656 5.75 -19.390625 C 5.78125 -19.179688 5.796875 -18.867188 5.796875 -18.453125 C 5.796875 -18.046875 5.78125 -17.738281 5.75 -17.53125 C 5.726562 -17.320312 5.648438 -17.085938 5.515625 -16.828125 Z M 5.515625 -16.828125 "/></g></g></g><g fill="#ff6f3b" fill-opacity="1"><g transform="translate(552.753142, 26.058436)"><g><path d="M 5.71875 -12.3125 C 6.5625 -13.59375 7.578125 -14.234375 8.765625 -14.234375 C 10.597656 -14.234375 11.960938 -13.453125 12.859375 -11.890625 C 13.054688 -12.160156 13.289062 -12.441406 13.5625 -12.734375 C 13.84375 -13.035156 14.289062 -13.359375 14.90625 -13.703125 C 15.519531 -14.054688 16.148438 -14.234375 16.796875 -14.234375 C 18.234375 -14.234375 19.4375 -13.679688 20.40625 -12.578125 C 21.375 -11.472656 21.859375 -9.644531 21.859375 -7.09375 L 21.859375 -2.375 C 21.859375 -1.957031 21.84375 -1.644531 21.8125 -1.4375 C 21.789062 -1.226562 21.707031 -0.992188 21.5625 -0.734375 C 21.332031 -0.242188 20.640625 0 19.484375 0 C 18.359375 0 17.664062 -0.25 17.40625 -0.75 C 17.28125 -1.019531 17.203125 -1.257812 17.171875 -1.46875 C 17.148438 -1.675781 17.140625 -1.988281 17.140625 -2.40625 L 17.140625 -7.109375 C 17.140625 -8.671875 16.582031 -9.453125 15.46875 -9.453125 C 14.84375 -9.453125 14.414062 -9.242188 14.1875 -8.828125 C 13.96875 -8.421875 13.859375 -7.84375 13.859375 -7.09375 L 13.859375 -2.375 C 13.859375 -1.9375 13.84375 -1.617188 13.8125 -1.421875 C 13.78125 -1.222656 13.695312 -0.992188 13.5625 -0.734375 C 13.3125 -0.242188 12.609375 0 11.453125 0 C 10.316406 0 9.625 -0.25 9.375 -0.75 C 9.25 -1.019531 9.171875 -1.257812 9.140625 -1.46875 C 9.117188 -1.675781 9.109375 -1.988281 9.109375 -2.40625 L 9.109375 -7.109375 C 9.109375 -8.671875 8.550781 -9.453125 7.4375 -9.453125 C 6.363281 -9.453125 5.828125 -8.671875 5.828125 -7.109375 L 5.828125 -2.34375 C 5.828125 -1.925781 5.8125 -1.613281 5.78125 -1.40625 C 5.75 -1.207031 5.664062 -0.972656 5.53125 -0.703125 C 5.257812 -0.234375 4.554688 0 3.421875 0 C 2.285156 0 1.59375 -0.242188 1.34375 -0.734375 C 1.21875 -0.992188 1.140625 -1.222656 1.109375 -1.421875 C 1.085938 -1.617188 1.078125 -1.9375 1.078125 -2.375 L 1.078125 -11.859375 C 1.078125 -12.273438 1.085938 -12.582031 1.109375 -12.78125 C 1.140625 -12.988281 1.226562 -13.222656 1.375 -13.484375 C 1.644531 -13.960938 2.28125 -14.203125 3.28125 -14.203125 C 4.289062 -14.203125 4.945312 -14.039062 5.25 -13.71875 C 5.5625 -13.394531 5.71875 -12.925781 5.71875 -12.3125 Z M 5.71875 -12.3125 "/></g></g></g><g fill="#ff6f3b" fill-opacity="1"><g transform="translate(576.194715, 26.058436)"><g><path d="M 14.765625 -8.796875 C 14.765625 -7.691406 14.488281 -6.875 13.9375 -6.34375 C 13.394531 -5.8125 12.789062 -5.546875 12.125 -5.546875 L 5.734375 -5.546875 C 5.734375 -5.046875 6.03125 -4.625 6.625 -4.28125 C 7.21875 -3.945312 7.8125 -3.78125 8.40625 -3.78125 C 9.445312 -3.78125 10.265625 -3.882812 10.859375 -4.09375 L 11.15625 -4.203125 C 11.59375 -4.398438 11.953125 -4.5 12.234375 -4.5 C 12.804688 -4.5 13.300781 -4.09375 13.71875 -3.28125 C 13.945312 -2.800781 14.0625 -2.390625 14.0625 -2.046875 C 14.0625 -0.453125 12.148438 0.34375 8.328125 0.34375 C 6.992188 0.34375 5.8125 0.113281 4.78125 -0.34375 C 3.75 -0.800781 2.945312 -1.40625 2.375 -2.15625 C 1.238281 -3.613281 0.671875 -5.238281 0.671875 -7.03125 C 0.671875 -9.300781 1.398438 -11.113281 2.859375 -12.46875 C 4.328125 -13.820312 6.160156 -14.5 8.359375 -14.5 C 10.859375 -14.5 12.691406 -13.617188 13.859375 -11.859375 C 14.460938 -10.921875 14.765625 -9.898438 14.765625 -8.796875 Z M 9.078125 -8 C 9.765625 -8 10.109375 -8.289062 10.109375 -8.875 C 10.109375 -9.28125 9.953125 -9.609375 9.640625 -9.859375 C 9.328125 -10.117188 8.875 -10.25 8.28125 -10.25 C 7.695312 -10.25 7.117188 -10.007812 6.546875 -9.53125 C 5.972656 -9.050781 5.6875 -8.539062 5.6875 -8 Z M 9.078125 -8 "/></g></g></g></g></g></g></g></g></g></svg>